<?xml version="1.0" encoding="UTF-8" standalone="no"?>
<!DOCTYPE svg PUBLIC "-//W3C//DTD SVG 1.1//EN"
 "http://www.w3.org/Graphics/SVG/1.1/DTD/svg11.dtd">
<!-- Generated by graphviz version 2.43.0 (0)
 -->
<!-- Title: G Pages: 1 -->
<svg width="1001pt" height="312pt"
 viewBox="0.00 0.00 1001.20 312.20" xmlns="http://www.w3.org/2000/svg" xmlns:xlink="http://www.w3.org/1999/xlink">
<g id="graph0" class="graph" transform="scale(1 1) rotate(0) translate(21.6 290.6)">
<title>G</title>
<polygon fill="#111111" stroke="transparent" points="-21.6,21.6 -21.6,-290.6 979.6,-290.6 979.6,21.6 -21.6,21.6"/>
<!-- App.jsx -->
<g id="node1" class="node">
<title>App.jsx</title>
<path fill="none" stroke="#c6c5fe" d="M53.33,-146C53.33,-146 7.67,-146 7.67,-146 3.83,-146 0,-142.17 0,-138.33 0,-138.33 0,-130.67 0,-130.67 0,-126.83 3.83,-123 7.67,-123 7.67,-123 53.33,-123 53.33,-123 57.17,-123 61,-126.83 61,-130.67 61,-130.67 61,-138.33 61,-138.33 61,-142.17 57.17,-146 53.33,-146"/>
<text text-anchor="middle" x="30.5" y="-130.8" font-family="Arial" font-size="14.00" fill="#c6c5fe">App.jsx</text>
</g>
<!-- assets/bg&#45;desktop&#45;dark.jpg -->
<g id="node2" class="node">
<title>assets/bg&#45;desktop&#45;dark.jpg</title>
<path fill="none" stroke="#cfffac" d="M268.33,-269C268.33,-269 104.67,-269 104.67,-269 100.83,-269 97,-265.17 97,-261.33 97,-261.33 97,-253.67 97,-253.67 97,-249.83 100.83,-246 104.67,-246 104.67,-246 268.33,-246 268.33,-246 272.17,-246 276,-249.83 276,-253.67 276,-253.67 276,-261.33 276,-261.33 276,-265.17 272.17,-269 268.33,-269"/>
<text text-anchor="middle" x="186.5" y="-253.8" font-family="Arial" font-size="14.00" fill="#cfffac">assets/bg&#45;desktop&#45;dark.jpg</text>
</g>
<!-- App.jsx&#45;&gt;assets/bg&#45;desktop&#45;dark.jpg -->
<g id="edge1" class="edge">
<title>App.jsx&#45;&gt;assets/bg&#45;desktop&#45;dark.jpg</title>
<path fill="none" stroke="#757575" d="M35.5,-146.2C43.52,-167.85 63.73,-214.08 97,-237.5 98.94,-238.86 100.95,-240.13 103.03,-241.32"/>
<polygon fill="#757575" stroke="#757575" points="101.96,-244.7 112.48,-246 105.07,-238.43 101.96,-244.7"/>
</g>
<!-- assets/bg&#45;desktop&#45;light.jpg -->
<g id="node3" class="node">
<title>assets/bg&#45;desktop&#45;light.jpg</title>
<path fill="none" stroke="#cfffac" d="M267.33,-228C267.33,-228 105.67,-228 105.67,-228 101.83,-228 98,-224.17 98,-220.33 98,-220.33 98,-212.67 98,-212.67 98,-208.83 101.83,-205 105.67,-205 105.67,-205 267.33,-205 267.33,-205 271.17,-205 275,-208.83 275,-212.67 275,-212.67 275,-220.33 275,-220.33 275,-224.17 271.17,-228 267.33,-228"/>
<text text-anchor="middle" x="186.5" y="-212.8" font-family="Arial" font-size="14.00" fill="#cfffac">assets/bg&#45;desktop&#45;light.jpg</text>
</g>
<!-- App.jsx&#45;&gt;assets/bg&#45;desktop&#45;light.jpg -->
<g id="edge2" class="edge">
<title>App.jsx&#45;&gt;assets/bg&#45;desktop&#45;light.jpg</title>
<path fill="none" stroke="#757575" d="M40.35,-146.05C51.84,-160.19 73.24,-183.82 97,-196.5 100.32,-198.27 103.8,-199.89 107.36,-201.36"/>
<polygon fill="#757575" stroke="#757575" points="106.4,-204.74 116.99,-204.94 108.83,-198.17 106.4,-204.74"/>
</g>
<!-- assets/bg&#45;mobile&#45;dark.jpg -->
<g id="node4" class="node">
<title>assets/bg&#45;mobile&#45;dark.jpg</title>
<path fill="none" stroke="#cfffac" d="M264.83,-187C264.83,-187 108.17,-187 108.17,-187 104.33,-187 100.5,-183.17 100.5,-179.33 100.5,-179.33 100.5,-171.67 100.5,-171.67 100.5,-167.83 104.33,-164 108.17,-164 108.17,-164 264.83,-164 264.83,-164 268.67,-164 272.5,-167.83 272.5,-171.67 272.5,-171.67 272.5,-179.33 272.5,-179.33 272.5,-183.17 268.67,-187 264.83,-187"/>
<text text-anchor="middle" x="186.5" y="-171.8" font-family="Arial" font-size="14.00" fill="#cfffac">assets/bg&#45;mobile&#45;dark.jpg</text>
</g>
<!-- App.jsx&#45;&gt;assets/bg&#45;mobile&#45;dark.jpg -->
<g id="edge3" class="edge">
<title>App.jsx&#45;&gt;assets/bg&#45;mobile&#45;dark.jpg</title>
<path fill="none" stroke="#757575" d="M61.01,-144.57C72.21,-148.23 85.13,-152.26 97,-155.5 104.78,-157.62 112.99,-159.69 121.14,-161.65"/>
<polygon fill="#757575" stroke="#757575" points="120.49,-165.1 131.02,-163.98 122.09,-158.28 120.49,-165.1"/>
</g>
<!-- assets/bg&#45;mobile&#45;light.jpg -->
<g id="node5" class="node">
<title>assets/bg&#45;mobile&#45;light.jpg</title>
<path fill="none" stroke="#cfffac" d="M263.83,-146C263.83,-146 109.17,-146 109.17,-146 105.33,-146 101.5,-142.17 101.5,-138.33 101.5,-138.33 101.5,-130.67 101.5,-130.67 101.5,-126.83 105.33,-123 109.17,-123 109.17,-123 263.83,-123 263.83,-123 267.67,-123 271.5,-126.83 271.5,-130.67 271.5,-130.67 271.5,-138.33 271.5,-138.33 271.5,-142.17 267.67,-146 263.83,-146"/>
<text text-anchor="middle" x="186.5" y="-130.8" font-family="Arial" font-size="14.00" fill="#cfffac">assets/bg&#45;mobile&#45;light.jpg</text>
</g>
<!-- App.jsx&#45;&gt;assets/bg&#45;mobile&#45;light.jpg -->
<g id="edge4" class="edge">
<title>App.jsx&#45;&gt;assets/bg&#45;mobile&#45;light.jpg</title>
<path fill="none" stroke="#757575" d="M61.19,-134.5C70.16,-134.5 80.52,-134.5 91.37,-134.5"/>
<polygon fill="#757575" stroke="#757575" points="91.43,-138 101.43,-134.5 91.43,-131 91.43,-138"/>
</g>
<!-- components/TodoTable.jsx -->
<g id="node6" class="node">
<title>components/TodoTable.jsx</title>
<path fill="none" stroke="#c6c5fe" d="M266.83,-105C266.83,-105 106.17,-105 106.17,-105 102.33,-105 98.5,-101.17 98.5,-97.33 98.5,-97.33 98.5,-89.67 98.5,-89.67 98.5,-85.83 102.33,-82 106.17,-82 106.17,-82 266.83,-82 266.83,-82 270.67,-82 274.5,-85.83 274.5,-89.67 274.5,-89.67 274.5,-97.33 274.5,-97.33 274.5,-101.17 270.67,-105 266.83,-105"/>
<text text-anchor="middle" x="186.5" y="-89.8" font-family="Arial" font-size="14.00" fill="#c6c5fe">components/TodoTable.jsx</text>
</g>
<!-- App.jsx&#45;&gt;components/TodoTable.jsx -->
<g id="edge5" class="edge">
<title>App.jsx&#45;&gt;components/TodoTable.jsx</title>
<path fill="none" stroke="#757575" d="M61.06,-125.04C72.27,-121.57 85.18,-117.7 97,-114.5 105.84,-112.1 115.22,-109.71 124.44,-107.45"/>
<polygon fill="#757575" stroke="#757575" points="125.45,-110.81 134.35,-105.05 123.81,-104.01 125.45,-110.81"/>
</g>
<!-- styles/global.css -->
<g id="node7" class="node">
<title>styles/global.css</title>
<path fill="none" stroke="#cfffac" d="M236.33,-64C236.33,-64 136.67,-64 136.67,-64 132.83,-64 129,-60.17 129,-56.33 129,-56.33 129,-48.67 129,-48.67 129,-44.83 132.83,-41 136.67,-41 136.67,-41 236.33,-41 236.33,-41 240.17,-41 244,-44.83 244,-48.67 244,-48.67 244,-56.33 244,-56.33 244,-60.17 240.17,-64 236.33,-64"/>
<text text-anchor="middle" x="186.5" y="-48.8" font-family="Arial" font-size="14.00" fill="#cfffac">styles/global.css</text>
</g>
<!-- App.jsx&#45;&gt;styles/global.css -->
<g id="edge6" class="edge">
<title>App.jsx&#45;&gt;styles/global.css</title>
<path fill="none" stroke="#757575" d="M40.82,-122.69C52.47,-108.77 73.71,-85.97 97,-73.5 103.85,-69.83 111.34,-66.8 118.97,-64.29"/>
<polygon fill="#757575" stroke="#757575" points="120.09,-67.61 128.67,-61.39 118.08,-60.9 120.09,-67.61"/>
</g>
<!-- styles/resets.css -->
<g id="node8" class="node">
<title>styles/resets.css</title>
<path fill="none" stroke="#cfffac" d="M236.83,-23C236.83,-23 136.17,-23 136.17,-23 132.33,-23 128.5,-19.17 128.5,-15.33 128.5,-15.33 128.5,-7.67 128.5,-7.67 128.5,-3.83 132.33,0 136.17,0 136.17,0 236.83,0 236.83,0 240.67,0 244.5,-3.83 244.5,-7.67 244.5,-7.67 244.5,-15.33 244.5,-15.33 244.5,-19.17 240.67,-23 236.83,-23"/>
<text text-anchor="middle" x="186.5" y="-7.8" font-family="Arial" font-size="14.00" fill="#cfffac">styles/resets.css</text>
</g>
<!-- App.jsx&#45;&gt;styles/resets.css -->
<g id="edge7" class="edge">
<title>App.jsx&#45;&gt;styles/resets.css</title>
<path fill="none" stroke="#757575" d="M35.5,-122.8C43.52,-101.15 63.73,-54.92 97,-31.5 103.59,-26.86 111.09,-23.27 118.86,-20.51"/>
<polygon fill="#757575" stroke="#757575" points="119.93,-23.84 128.44,-17.53 117.85,-17.16 119.93,-23.84"/>
</g>
<!-- components/TodCreator.jsx -->
<g id="node10" class="node">
<title>components/TodCreator.jsx</title>
<path fill="none" stroke="#cfffac" d="M495.83,-146C495.83,-146 330.17,-146 330.17,-146 326.33,-146 322.5,-142.17 322.5,-138.33 322.5,-138.33 322.5,-130.67 322.5,-130.67 322.5,-126.83 326.33,-123 330.17,-123 330.17,-123 495.83,-123 495.83,-123 499.67,-123 503.5,-126.83 503.5,-130.67 503.5,-130.67 503.5,-138.33 503.5,-138.33 503.5,-142.17 499.67,-146 495.83,-146"/>
<text text-anchor="middle" x="413" y="-130.8" font-family="Arial" font-size="14.00" fill="#cfffac">components/TodCreator.jsx</text>
</g>
<!-- components/TodoTable.jsx&#45;&gt;components/TodCreator.jsx -->
<g id="edge10" class="edge">
<title>components/TodoTable.jsx&#45;&gt;components/TodCreator.jsx</title>
<path fill="none" stroke="#757575" d="M250.63,-105.03C278.13,-110.05 310.52,-115.97 339.04,-121.18"/>
<polygon fill="#757575" stroke="#757575" points="338.49,-124.63 348.95,-122.99 339.74,-117.75 338.49,-124.63"/>
</g>
<!-- components/TodoContainer.jsx -->
<g id="node11" class="node">
<title>components/TodoContainer.jsx</title>
<path fill="none" stroke="#c6c5fe" d="M506.33,-105C506.33,-105 319.67,-105 319.67,-105 315.83,-105 312,-101.17 312,-97.33 312,-97.33 312,-89.67 312,-89.67 312,-85.83 315.83,-82 319.67,-82 319.67,-82 506.33,-82 506.33,-82 510.17,-82 514,-85.83 514,-89.67 514,-89.67 514,-97.33 514,-97.33 514,-101.17 510.17,-105 506.33,-105"/>
<text text-anchor="middle" x="413" y="-89.8" font-family="Arial" font-size="14.00" fill="#c6c5fe">components/TodoContainer.jsx</text>
</g>
<!-- components/TodoTable.jsx&#45;&gt;components/TodoContainer.jsx -->
<g id="edge11" class="edge">
<title>components/TodoTable.jsx&#45;&gt;components/TodoContainer.jsx</title>
<path fill="none" stroke="#757575" d="M274.62,-93.5C283.48,-93.5 292.57,-93.5 301.64,-93.5"/>
<polygon fill="#757575" stroke="#757575" points="301.86,-97 311.86,-93.5 301.86,-90 301.86,-97"/>
</g>
<!-- components/UtilityBar.jsx -->
<g id="node13" class="node">
<title>components/UtilityBar.jsx</title>
<path fill="none" stroke="#cfffac" d="M489.33,-64C489.33,-64 336.67,-64 336.67,-64 332.83,-64 329,-60.17 329,-56.33 329,-56.33 329,-48.67 329,-48.67 329,-44.83 332.83,-41 336.67,-41 336.67,-41 489.33,-41 489.33,-41 493.17,-41 497,-44.83 497,-48.67 497,-48.67 497,-56.33 497,-56.33 497,-60.17 493.17,-64 489.33,-64"/>
<text text-anchor="middle" x="413" y="-48.8" font-family="Arial" font-size="14.00" fill="#cfffac">components/UtilityBar.jsx</text>
</g>
<!-- components/TodoTable.jsx&#45;&gt;components/UtilityBar.jsx -->
<g id="edge12" class="edge">
<title>components/TodoTable.jsx&#45;&gt;components/UtilityBar.jsx</title>
<path fill="none" stroke="#757575" d="M250.63,-81.97C278.13,-76.95 310.52,-71.03 339.04,-65.82"/>
<polygon fill="#757575" stroke="#757575" points="339.74,-69.25 348.95,-64.01 338.49,-62.37 339.74,-69.25"/>
</g>
<!-- components/AndroidSwitch.jsx -->
<g id="node9" class="node">
<title>components/AndroidSwitch.jsx</title>
<path fill="none" stroke="#cfffac" d="M950.33,-105C950.33,-105 764.67,-105 764.67,-105 760.83,-105 757,-101.17 757,-97.33 757,-97.33 757,-89.67 757,-89.67 757,-85.83 760.83,-82 764.67,-82 764.67,-82 950.33,-82 950.33,-82 954.17,-82 958,-85.83 958,-89.67 958,-89.67 958,-97.33 958,-97.33 958,-101.17 954.17,-105 950.33,-105"/>
<text text-anchor="middle" x="857.5" y="-89.8" font-family="Arial" font-size="14.00" fill="#cfffac">components/AndroidSwitch.jsx</text>
</g>
<!-- components/TodoItem.jsx -->
<g id="node12" class="node">
<title>components/TodoItem.jsx</title>
<path fill="none" stroke="#c6c5fe" d="M713.33,-105C713.33,-105 557.67,-105 557.67,-105 553.83,-105 550,-101.17 550,-97.33 550,-97.33 550,-89.67 550,-89.67 550,-85.83 553.83,-82 557.67,-82 557.67,-82 713.33,-82 713.33,-82 717.17,-82 721,-85.83 721,-89.67 721,-89.67 721,-97.33 721,-97.33 721,-101.17 717.17,-105 713.33,-105"/>
<text text-anchor="middle" x="635.5" y="-89.8" font-family="Arial" font-size="14.00" fill="#c6c5fe">components/TodoItem.jsx</text>
</g>
<!-- components/TodoContainer.jsx&#45;&gt;components/TodoItem.jsx -->
<g id="edge8" class="edge">
<title>components/TodoContainer.jsx&#45;&gt;components/TodoItem.jsx</title>
<path fill="none" stroke="#757575" d="M514.25,-93.5C522.74,-93.5 531.31,-93.5 539.76,-93.5"/>
<polygon fill="#757575" stroke="#757575" points="539.99,-97 549.99,-93.5 539.99,-90 539.99,-97"/>
</g>
<!-- components/TodoItem.jsx&#45;&gt;components/AndroidSwitch.jsx -->
<g id="edge9" class="edge">
<title>components/TodoItem.jsx&#45;&gt;components/AndroidSwitch.jsx</title>
<path fill="none" stroke="#757575" d="M721.24,-93.5C729.6,-93.5 738.15,-93.5 746.71,-93.5"/>
<polygon fill="#757575" stroke="#757575" points="746.74,-97 756.74,-93.5 746.74,-90 746.74,-97"/>
</g>
</g>
</svg>
